<svg width="24" height="16" viewBox="0 0 24 16" fill="none" xmlns="http://www.w3.org/2000/svg">
<path d="M0.268556 12L3.33642 3.6H5.17114L8.23404 12H6.5189L4.24426 5.45087L1.96467 12H0.268556ZM1.62125 10.0932L2.04993 8.82704H6.32522L6.74687 10.0932H1.62125ZM12.6252 12.144C11.7905 12.144 11.0704 11.962 10.465 11.598C9.85966 11.234 9.39462 10.726 9.06993 10.074C8.74524 9.422 8.5829 8.66869 8.5829 7.81407C8.5829 6.95476 8.74524 6.19793 9.06993 5.54359C9.39462 4.88924 9.85966 4.37772 10.465 4.00903C11.0704 3.64034 11.7905 3.456 12.6252 3.456C13.6415 3.456 14.4743 3.70862 15.1235 4.21386C15.7727 4.7191 16.179 5.43227 16.3423 6.35337H14.5581C14.4582 5.90371 14.2439 5.55253 13.9153 5.29984C13.5866 5.04715 13.1542 4.9208 12.6182 4.9208C12.112 4.9208 11.6823 5.0377 11.329 5.27149C10.9758 5.50529 10.7049 5.83798 10.5165 6.26957C10.3281 6.70116 10.2339 7.21599 10.2339 7.81407C10.2339 8.40745 10.3281 8.91877 10.5165 9.34801C10.7049 9.77726 10.9758 10.1076 11.329 10.3391C11.6823 10.5705 12.112 10.6862 12.6182 10.6862C13.1542 10.6862 13.5854 10.5697 13.9117 10.3368C14.2381 10.1038 14.4535 9.77588 14.5581 9.35297H16.3423C16.1837 10.2219 15.7786 10.9043 15.127 11.4002C14.4754 11.8961 13.6415 12.144 12.6252 12.144ZM17.7137 12V3.6H23.1844V4.90632H19.3336V7.15491H22.4247V8.42813H19.3336V12H17.7137Z" fill="#131B2E"/>
</svg>
