<svg width="1413" height="801" viewBox="0 0 1413 801" fill="none" xmlns="http://www.w3.org/2000/svg">
<g opacity="0.35">
<circle cx="6.5" cy="6.5" r="6.5" fill="#4E00FF"/>
<circle cx="56.5" cy="6.5" r="6.5" fill="#4E00FF"/>
<circle cx="106.5" cy="6.5" r="6.5" fill="#4E00FF"/>
<circle cx="156.5" cy="6.5" r="6.5" fill="#4E00FF"/>
<circle cx="206.5" cy="6.5" r="6.5" fill="#4E00FF"/>
<circle cx="256.5" cy="6.5" r="6.5" fill="#4E00FF"/>
<circle cx="306.5" cy="6.5" r="6.5" fill="#4E00FF"/>
<circle cx="356.5" cy="6.5" r="6.5" fill="#4E00FF"/>
<circle cx="406.5" cy="6.5" r="6.5" fill="#4E00FF"/>
<circle cx="456.5" cy="6.5" r="6.5" fill="#4E00FF"/>
<circle cx="506.5" cy="6.5" r="6.5" fill="#4E00FF"/>
<circle cx="556.5" cy="6.5" r="6.5" fill="#4E00FF"/>
<circle cx="606.5" cy="6.5" r="6.5" fill="#4E00FF"/>
<circle cx="656.5" cy="6.5" r="6.5" fill="#4E00FF"/>
<circle cx="706.5" cy="6.5" r="6.5" fill="#4E00FF"/>
<circle cx="756.5" cy="6.5" r="6.5" fill="#4E00FF"/>
<circle cx="806.5" cy="6.5" r="6.5" fill="#4E00FF"/>
<circle cx="856.5" cy="6.5" r="6.5" fill="#4E00FF"/>
<circle cx="906.5" cy="6.5" r="6.5" fill="#4E00FF"/>
<circle cx="956.5" cy="6.5" r="6.5" fill="#4E00FF"/>
<circle cx="1006.5" cy="6.5" r="6.5" fill="#4E00FF"/>
<circle cx="1056.5" cy="6.5" r="6.5" fill="#4E00FF"/>
<circle cx="1106.5" cy="6.5" r="6.5" fill="#4E00FF"/>
<circle cx="1156.5" cy="6.5" r="6.5" fill="#4E00FF"/>
<circle cx="1206.5" cy="6.5" r="6.5" fill="#4E00FF"/>
<circle cx="1256.5" cy="6.5" r="6.5" fill="#4E00FF"/>
<circle cx="1306.5" cy="6.5" r="6.5" fill="#4E00FF"/>
<circle cx="1356.5" cy="6.5" r="6.5" fill="#4E00FF"/>
<circle cx="1406.5" cy="6.5" r="6.5" fill="#4E00FF"/>
<circle cx="6.5" cy="44.5" r="6.5" fill="#4E00FF"/>
<circle cx="56.5" cy="44.5" r="6.5" fill="#4E00FF"/>
<circle cx="106.5" cy="44.5" r="6.5" fill="#4E00FF"/>
<circle cx="156.5" cy="44.5" r="6.5" fill="#4E00FF"/>
<circle cx="206.5" cy="44.5" r="6.5" fill="#4E00FF"/>
<circle cx="256.5" cy="44.5" r="6.5" fill="#4E00FF"/>
<circle cx="306.5" cy="44.5" r="6.5" fill="#4E00FF"/>
<circle cx="356.5" cy="44.5" r="6.5" fill="#4E00FF"/>
<circle cx="406.5" cy="44.5" r="6.5" fill="#4E00FF"/>
<circle cx="456.5" cy="44.5" r="6.5" fill="#4E00FF"/>
<circle cx="506.5" cy="44.5" r="6.5" fill="#4E00FF"/>
<circle cx="556.5" cy="44.5" r="6.5" fill="#4E00FF"/>
<circle cx="606.5" cy="44.5" r="6.5" fill="#4E00FF"/>
<circle cx="656.5" cy="44.5" r="6.5" fill="#4E00FF"/>
<circle cx="706.5" cy="44.5" r="6.5" fill="#4E00FF"/>
<circle cx="756.5" cy="44.5" r="6.5" fill="#4E00FF"/>
<circle cx="806.5" cy="44.5" r="6.5" fill="#4E00FF"/>
<circle cx="856.5" cy="44.5" r="6.5" fill="#4E00FF"/>
<circle cx="906.5" cy="44.5" r="6.5" fill="#4E00FF"/>
<circle cx="956.5" cy="44.5" r="6.5" fill="#4E00FF"/>
<circle cx="1006.5" cy="44.5" r="6.5" fill="#4E00FF"/>
<circle cx="1056.5" cy="44.5" r="6.5" fill="#4E00FF"/>
<circle cx="1106.5" cy="44.5" r="6.5" fill="#4E00FF"/>
<circle cx="1156.5" cy="44.5" r="6.5" fill="#4E00FF"/>
<circle cx="1206.5" cy="44.5" r="6.5" fill="#4E00FF"/>
<circle cx="1256.5" cy="44.5" r="6.5" fill="#4E00FF"/>
<circle cx="1306.5" cy="44.5" r="6.5" fill="#4E00FF"/>
<circle cx="1356.5" cy="44.5" r="6.5" fill="#4E00FF"/>
<circle cx="1406.5" cy="44.5" r="6.5" fill="#4E00FF"/>
<circle cx="6.5" cy="82.5" r="6.5" fill="#4E00FF"/>
<circle cx="56.5" cy="82.5" r="6.5" fill="#4E00FF"/>
<circle cx="106.5" cy="82.5" r="6.5" fill="#4E00FF"/>
<circle cx="156.5" cy="82.5" r="6.5" fill="#4E00FF"/>
<circle cx="206.5" cy="82.5" r="6.5" fill="#4E00FF"/>
<circle cx="256.5" cy="82.5" r="6.5" fill="#4E00FF"/>
<circle cx="306.5" cy="82.5" r="6.5" fill="#4E00FF"/>
<circle cx="356.5" cy="82.5" r="6.5" fill="#4E00FF"/>
<circle cx="406.5" cy="82.5" r="6.5" fill="#4E00FF"/>
<circle cx="456.5" cy="82.5" r="6.5" fill="#4E00FF"/>
<circle cx="506.5" cy="82.5" r="6.5" fill="#4E00FF"/>
<circle cx="556.5" cy="82.5" r="6.5" fill="#4E00FF"/>
<circle cx="606.5" cy="82.5" r="6.5" fill="#4E00FF"/>
<circle cx="656.5" cy="82.5" r="6.5" fill="#4E00FF"/>
<circle cx="706.5" cy="82.5" r="6.5" fill="#4E00FF"/>
<circle cx="756.5" cy="82.5" r="6.5" fill="#4E00FF"/>
<circle cx="806.5" cy="82.5" r="6.5" fill="#4E00FF"/>
<circle cx="856.5" cy="82.5" r="6.5" fill="#4E00FF"/>
<circle cx="906.5" cy="82.5" r="6.5" fill="#4E00FF"/>
<circle cx="956.5" cy="82.5" r="6.5" fill="#4E00FF"/>
<circle cx="1006.5" cy="82.5" r="6.5" fill="#4E00FF"/>
<circle cx="1056.5" cy="82.5" r="6.5" fill="#4E00FF"/>
<circle cx="1106.5" cy="82.5" r="6.5" fill="#4E00FF"/>
<circle cx="1156.5" cy="82.5" r="6.5" fill="#4E00FF"/>
<circle cx="1206.5" cy="82.5" r="6.5" fill="#4E00FF"/>
<circle cx="1256.5" cy="82.5" r="6.5" fill="#4E00FF"/>
<circle cx="1306.5" cy="82.5" r="6.5" fill="#4E00FF"/>
<circle cx="1356.5" cy="82.5" r="6.5" fill="#4E00FF"/>
<circle cx="1406.5" cy="82.5" r="6.5" fill="#4E00FF"/>
<circle cx="6.5" cy="120.5" r="6.5" fill="#4E00FF"/>
<circle cx="56.5" cy="120.5" r="6.5" fill="#4E00FF"/>
<circle cx="106.5" cy="120.5" r="6.5" fill="#4E00FF"/>
<circle cx="156.5" cy="120.5" r="6.5" fill="#4E00FF"/>
<circle cx="206.5" cy="120.5" r="6.5" fill="#4E00FF"/>
<circle cx="256.5" cy="120.5" r="6.5" fill="#4E00FF"/>
<circle cx="306.5" cy="120.5" r="6.5" fill="#4E00FF"/>
<circle cx="356.5" cy="120.5" r="6.5" fill="#4E00FF"/>
<circle cx="406.5" cy="120.5" r="6.5" fill="#4E00FF"/>
<circle cx="456.5" cy="120.5" r="6.5" fill="#4E00FF"/>
<circle cx="506.5" cy="120.5" r="6.5" fill="#4E00FF"/>
<circle cx="556.5" cy="120.5" r="6.5" fill="#4E00FF"/>
<circle cx="606.5" cy="120.5" r="6.5" fill="#4E00FF"/>
<circle cx="656.5" cy="120.5" r="6.5" fill="#4E00FF"/>
<circle cx="706.5" cy="120.5" r="6.5" fill="#4E00FF"/>
<circle cx="756.5" cy="120.5" r="6.5" fill="#4E00FF"/>
<circle cx="806.5" cy="120.5" r="6.5" fill="#4E00FF"/>
<circle cx="856.5" cy="120.5" r="6.5" fill="#4E00FF"/>
<circle cx="906.5" cy="120.5" r="6.5" fill="#4E00FF"/>
<circle cx="956.5" cy="120.5" r="6.5" fill="#4E00FF"/>
<circle cx="1006.5" cy="120.5" r="6.5" fill="#4E00FF"/>
<circle cx="1056.5" cy="120.5" r="6.5" fill="#4E00FF"/>
<circle cx="1106.5" cy="120.5" r="6.5" fill="#4E00FF"/>
<circle cx="1156.5" cy="120.5" r="6.5" fill="#4E00FF"/>
<circle cx="1206.5" cy="120.5" r="6.5" fill="#4E00FF"/>
<circle cx="1256.5" cy="120.5" r="6.5" fill="#4E00FF"/>
<circle cx="1306.5" cy="120.5" r="6.5" fill="#4E00FF"/>
<circle cx="1356.5" cy="120.5" r="6.5" fill="#4E00FF"/>
<circle cx="1406.5" cy="120.5" r="6.5" fill="#4E00FF"/>
<circle cx="6.5" cy="158.5" r="6.5" fill="#4E00FF"/>
<circle cx="56.5" cy="158.5" r="6.5" fill="#4E00FF"/>
<circle cx="106.5" cy="158.5" r="6.5" fill="#4E00FF"/>
<circle cx="156.5" cy="158.5" r="6.5" fill="#4E00FF"/>
<circle cx="206.5" cy="158.5" r="6.5" fill="#4E00FF"/>
<circle cx="256.5" cy="158.5" r="6.5" fill="#4E00FF"/>
<circle cx="306.5" cy="158.5" r="6.5" fill="#4E00FF"/>
<circle cx="356.5" cy="158.5" r="6.5" fill="#4E00FF"/>
<circle cx="406.5" cy="158.5" r="6.5" fill="#4E00FF"/>
<circle cx="456.5" cy="158.5" r="6.5" fill="#4E00FF"/>
<circle cx="506.5" cy="158.5" r="6.5" fill="#4E00FF"/>
<circle cx="556.5" cy="158.5" r="6.5" fill="#4E00FF"/>
<circle cx="606.5" cy="158.5" r="6.5" fill="#4E00FF"/>
<circle cx="656.5" cy="158.5" r="6.5" fill="#4E00FF"/>
<circle cx="706.5" cy="158.5" r="6.5" fill="#4E00FF"/>
<circle cx="756.5" cy="158.5" r="6.5" fill="#4E00FF"/>
<circle cx="806.5" cy="158.5" r="6.5" fill="#4E00FF"/>
<circle cx="856.5" cy="158.5" r="6.5" fill="#4E00FF"/>
<circle cx="906.5" cy="158.5" r="6.5" fill="#4E00FF"/>
<circle cx="956.5" cy="158.5" r="6.5" fill="#4E00FF"/>
<circle cx="1006.5" cy="158.5" r="6.5" fill="#4E00FF"/>
<circle cx="1056.5" cy="158.5" r="6.5" fill="#4E00FF"/>
<circle cx="1106.5" cy="158.5" r="6.5" fill="#4E00FF"/>
<circle cx="1156.5" cy="158.5" r="6.5" fill="#4E00FF"/>
<circle cx="1206.5" cy="158.5" r="6.5" fill="#4E00FF"/>
<circle cx="1256.5" cy="158.5" r="6.5" fill="#4E00FF"/>
<circle cx="1306.5" cy="158.5" r="6.5" fill="#4E00FF"/>
<circle cx="1356.5" cy="158.5" r="6.5" fill="#4E00FF"/>
<circle cx="1406.5" cy="158.5" r="6.5" fill="#4E00FF"/>
<circle cx="6.5" cy="196.5" r="6.5" fill="#4E00FF"/>
<circle cx="56.5" cy="196.5" r="6.5" fill="#4E00FF"/>
<circle cx="106.5" cy="196.5" r="6.5" fill="#4E00FF"/>
<circle cx="156.5" cy="196.5" r="6.5" fill="#4E00FF"/>
<circle cx="206.5" cy="196.5" r="6.5" fill="#4E00FF"/>
<circle cx="256.5" cy="196.5" r="6.5" fill="#4E00FF"/>
<circle cx="306.5" cy="196.5" r="6.5" fill="#4E00FF"/>
<circle cx="356.5" cy="196.5" r="6.5" fill="#4E00FF"/>
<circle cx="406.5" cy="196.5" r="6.5" fill="#4E00FF"/>
<circle cx="456.5" cy="196.5" r="6.5" fill="#4E00FF"/>
<circle cx="506.5" cy="196.5" r="6.5" fill="#4E00FF"/>
<circle cx="556.5" cy="196.5" r="6.5" fill="#4E00FF"/>
<circle cx="606.5" cy="196.5" r="6.5" fill="#4E00FF"/>
<circle cx="656.5" cy="196.5" r="6.5" fill="#4E00FF"/>
<circle cx="706.5" cy="196.5" r="6.5" fill="#4E00FF"/>
<circle cx="756.5" cy="196.5" r="6.5" fill="#4E00FF"/>
<circle cx="806.5" cy="196.5" r="6.5" fill="#4E00FF"/>
<circle cx="856.5" cy="196.5" r="6.5" fill="#4E00FF"/>
<circle cx="906.5" cy="196.5" r="6.5" fill="#4E00FF"/>
<circle cx="956.5" cy="196.5" r="6.5" fill="#4E00FF"/>
<circle cx="1006.5" cy="196.5" r="6.5" fill="#4E00FF"/>
<circle cx="1056.5" cy="196.5" r="6.5" fill="#4E00FF"/>
<circle cx="1106.5" cy="196.5" r="6.5" fill="#4E00FF"/>
<circle cx="1156.5" cy="196.5" r="6.5" fill="#4E00FF"/>
<circle cx="1206.5" cy="196.5" r="6.5" fill="#4E00FF"/>
<circle cx="1256.5" cy="196.5" r="6.5" fill="#4E00FF"/>
<circle cx="1306.5" cy="196.5" r="6.5" fill="#4E00FF"/>
<circle cx="1356.5" cy="196.5" r="6.5" fill="#4E00FF"/>
<circle cx="1406.5" cy="196.5" r="6.5" fill="#4E00FF"/>
<circle cx="6.5" cy="234.5" r="6.5" fill="#4E00FF"/>
<circle cx="56.5" cy="234.5" r="6.5" fill="#4E00FF"/>
<circle cx="106.5" cy="234.5" r="6.5" fill="#4E00FF"/>
<circle cx="156.5" cy="234.5" r="6.5" fill="#4E00FF"/>
<circle cx="206.5" cy="234.5" r="6.5" fill="#4E00FF"/>
<circle cx="256.5" cy="234.5" r="6.5" fill="#4E00FF"/>
<circle cx="306.5" cy="234.5" r="6.5" fill="#4E00FF"/>
<circle cx="356.5" cy="234.5" r="6.5" fill="#4E00FF"/>
<circle cx="406.5" cy="234.5" r="6.5" fill="#4E00FF"/>
<circle cx="456.5" cy="234.5" r="6.5" fill="#4E00FF"/>
<circle cx="506.5" cy="234.5" r="6.5" fill="#4E00FF"/>
<circle cx="556.5" cy="234.5" r="6.5" fill="#4E00FF"/>
<circle cx="606.5" cy="234.5" r="6.5" fill="#4E00FF"/>
<circle cx="656.5" cy="234.5" r="6.5" fill="#4E00FF"/>
<circle cx="706.5" cy="234.5" r="6.5" fill="#4E00FF"/>
<circle cx="756.5" cy="234.5" r="6.5" fill="#4E00FF"/>
<circle cx="806.5" cy="234.5" r="6.5" fill="#4E00FF"/>
<circle cx="856.5" cy="234.5" r="6.5" fill="#4E00FF"/>
<circle cx="906.5" cy="234.5" r="6.5" fill="#4E00FF"/>
<circle cx="956.5" cy="234.5" r="6.5" fill="#4E00FF"/>
<circle cx="1006.5" cy="234.5" r="6.5" fill="#4E00FF"/>
<circle cx="1056.5" cy="234.5" r="6.5" fill="#4E00FF"/>
<circle cx="1106.5" cy="234.5" r="6.5" fill="#4E00FF"/>
<circle cx="1156.5" cy="234.5" r="6.5" fill="#4E00FF"/>
<circle cx="1206.5" cy="234.5" r="6.5" fill="#4E00FF"/>
<circle cx="1256.5" cy="234.5" r="6.5" fill="#4E00FF"/>
<circle cx="1306.5" cy="234.5" r="6.5" fill="#4E00FF"/>
<circle cx="1356.5" cy="234.5" r="6.5" fill="#4E00FF"/>
<circle cx="1406.5" cy="234.5" r="6.5" fill="#4E00FF"/>
<circle cx="6.5" cy="272.5" r="6.5" fill="#4E00FF"/>
<circle cx="56.5" cy="272.5" r="6.5" fill="#4E00FF"/>
<circle cx="106.5" cy="272.5" r="6.5" fill="#4E00FF"/>
<circle cx="156.5" cy="272.5" r="6.5" fill="#4E00FF"/>
<circle cx="206.5" cy="272.5" r="6.5" fill="#4E00FF"/>
<circle cx="256.5" cy="272.5" r="6.5" fill="#4E00FF"/>
<circle cx="306.5" cy="272.5" r="6.5" fill="#4E00FF"/>
<circle cx="356.5" cy="272.5" r="6.5" fill="#4E00FF"/>
<circle cx="406.5" cy="272.5" r="6.5" fill="#4E00FF"/>
<circle cx="456.5" cy="272.5" r="6.5" fill="#4E00FF"/>
<circle cx="506.5" cy="272.5" r="6.5" fill="#4E00FF"/>
<circle cx="556.5" cy="272.5" r="6.5" fill="#4E00FF"/>
<circle cx="606.5" cy="272.5" r="6.5" fill="#4E00FF"/>
<circle cx="656.5" cy="272.5" r="6.5" fill="#4E00FF"/>
<circle cx="706.5" cy="272.5" r="6.5" fill="#4E00FF"/>
<circle cx="756.5" cy="272.5" r="6.5" fill="#4E00FF"/>
<circle cx="806.5" cy="272.5" r="6.5" fill="#4E00FF"/>
<circle cx="856.5" cy="272.5" r="6.5" fill="#4E00FF"/>
<circle cx="906.5" cy="272.5" r="6.5" fill="#4E00FF"/>
<circle cx="956.5" cy="272.5" r="6.5" fill="#4E00FF"/>
<circle cx="1006.5" cy="272.5" r="6.5" fill="#4E00FF"/>
<circle cx="1056.5" cy="272.5" r="6.5" fill="#4E00FF"/>
<circle cx="1106.5" cy="272.5" r="6.5" fill="#4E00FF"/>
<circle cx="1156.5" cy="272.5" r="6.5" fill="#4E00FF"/>
<circle cx="1206.5" cy="272.5" r="6.5" fill="#4E00FF"/>
<circle cx="1256.5" cy="272.5" r="6.5" fill="#4E00FF"/>
<circle cx="1306.5" cy="272.5" r="6.5" fill="#4E00FF"/>
<circle cx="1356.5" cy="272.5" r="6.5" fill="#4E00FF"/>
<circle cx="1406.5" cy="272.5" r="6.5" fill="#4E00FF"/>
<circle cx="6.5" cy="310.5" r="6.5" fill="#4E00FF"/>
<circle cx="56.5" cy="310.5" r="6.5" fill="#4E00FF"/>
<circle cx="106.5" cy="310.5" r="6.5" fill="#4E00FF"/>
<circle cx="156.5" cy="310.5" r="6.5" fill="#4E00FF"/>
<circle cx="206.5" cy="310.5" r="6.5" fill="#4E00FF"/>
<circle cx="256.5" cy="310.5" r="6.5" fill="#4E00FF"/>
<circle cx="306.5" cy="310.5" r="6.5" fill="#4E00FF"/>
<circle cx="356.5" cy="310.5" r="6.5" fill="#4E00FF"/>
<circle cx="406.5" cy="310.5" r="6.5" fill="#4E00FF"/>
<circle cx="456.5" cy="310.5" r="6.5" fill="#4E00FF"/>
<circle cx="506.5" cy="310.5" r="6.5" fill="#4E00FF"/>
<circle cx="556.5" cy="310.5" r="6.5" fill="#4E00FF"/>
<circle cx="606.5" cy="310.5" r="6.5" fill="#4E00FF"/>
<circle cx="656.5" cy="310.5" r="6.5" fill="#4E00FF"/>
<circle cx="706.5" cy="310.5" r="6.5" fill="#4E00FF"/>
<circle cx="756.5" cy="310.5" r="6.5" fill="#4E00FF"/>
<circle cx="806.5" cy="310.5" r="6.5" fill="#4E00FF"/>
<circle cx="856.5" cy="310.5" r="6.5" fill="#4E00FF"/>
<circle cx="906.5" cy="310.5" r="6.5" fill="#4E00FF"/>
<circle cx="956.5" cy="310.5" r="6.5" fill="#4E00FF"/>
<circle cx="1006.5" cy="310.5" r="6.5" fill="#4E00FF"/>
<circle cx="1056.5" cy="310.5" r="6.5" fill="#4E00FF"/>
<circle cx="1106.5" cy="310.5" r="6.5" fill="#4E00FF"/>
<circle cx="1156.5" cy="310.5" r="6.5" fill="#4E00FF"/>
<circle cx="1206.5" cy="310.5" r="6.5" fill="#4E00FF"/>
<circle cx="1256.5" cy="310.5" r="6.5" fill="#4E00FF"/>
<circle cx="1306.5" cy="310.5" r="6.5" fill="#4E00FF"/>
<circle cx="1356.5" cy="310.5" r="6.5" fill="#4E00FF"/>
<circle cx="1406.5" cy="310.5" r="6.5" fill="#4E00FF"/>
<circle cx="6.5" cy="348.5" r="6.5" fill="#4E00FF"/>
<circle cx="56.5" cy="348.5" r="6.5" fill="#4E00FF"/>
<circle cx="106.5" cy="348.5" r="6.5" fill="#4E00FF"/>
<circle cx="156.5" cy="348.5" r="6.5" fill="#4E00FF"/>
<circle cx="206.5" cy="348.5" r="6.5" fill="#4E00FF"/>
<circle cx="256.5" cy="348.5" r="6.5" fill="#4E00FF"/>
<circle cx="306.5" cy="348.5" r="6.5" fill="#4E00FF"/>
<circle cx="356.5" cy="348.5" r="6.5" fill="#4E00FF"/>
<circle cx="406.5" cy="348.5" r="6.5" fill="#4E00FF"/>
<circle cx="456.5" cy="348.5" r="6.5" fill="#4E00FF"/>
<circle cx="506.5" cy="348.5" r="6.5" fill="#4E00FF"/>
<circle cx="556.5" cy="348.5" r="6.5" fill="#4E00FF"/>
<circle cx="606.5" cy="348.5" r="6.5" fill="#4E00FF"/>
<circle cx="656.5" cy="348.5" r="6.5" fill="#4E00FF"/>
<circle cx="706.5" cy="348.5" r="6.5" fill="#4E00FF"/>
<circle cx="756.5" cy="348.5" r="6.5" fill="#4E00FF"/>
<circle cx="806.5" cy="348.5" r="6.5" fill="#4E00FF"/>
<circle cx="856.5" cy="348.5" r="6.5" fill="#4E00FF"/>
<circle cx="906.5" cy="348.5" r="6.5" fill="#4E00FF"/>
<circle cx="956.5" cy="348.5" r="6.5" fill="#4E00FF"/>
<circle cx="1006.5" cy="348.5" r="6.5" fill="#4E00FF"/>
<circle cx="1056.5" cy="348.5" r="6.5" fill="#4E00FF"/>
<circle cx="1106.5" cy="348.5" r="6.5" fill="#4E00FF"/>
<circle cx="1156.5" cy="348.5" r="6.5" fill="#4E00FF"/>
<circle cx="1206.5" cy="348.5" r="6.5" fill="#4E00FF"/>
<circle cx="1256.5" cy="348.5" r="6.5" fill="#4E00FF"/>
<circle cx="1306.5" cy="348.5" r="6.5" fill="#4E00FF"/>
<circle cx="1356.5" cy="348.5" r="6.5" fill="#4E00FF"/>
<circle cx="1406.5" cy="348.5" r="6.5" fill="#4E00FF"/>
<circle cx="6.5" cy="386.5" r="6.5" fill="#4E00FF"/>
<circle cx="56.5" cy="386.5" r="6.5" fill="#4E00FF"/>
<circle cx="106.5" cy="386.5" r="6.5" fill="#4E00FF"/>
<circle cx="156.5" cy="386.5" r="6.5" fill="#4E00FF"/>
<circle cx="206.5" cy="386.5" r="6.5" fill="#4E00FF"/>
<circle cx="256.5" cy="386.5" r="6.5" fill="#4E00FF"/>
<circle cx="306.5" cy="386.5" r="6.5" fill="#4E00FF"/>
<circle cx="356.5" cy="386.5" r="6.5" fill="#4E00FF"/>
<circle cx="406.5" cy="386.5" r="6.5" fill="#4E00FF"/>
<circle cx="456.5" cy="386.5" r="6.5" fill="#4E00FF"/>
<circle cx="506.5" cy="386.5" r="6.5" fill="#4E00FF"/>
<circle cx="556.5" cy="386.5" r="6.5" fill="#4E00FF"/>
<circle cx="606.5" cy="386.5" r="6.5" fill="#4E00FF"/>
<circle cx="656.5" cy="386.5" r="6.5" fill="#4E00FF"/>
<circle cx="706.5" cy="386.5" r="6.5" fill="#4E00FF"/>
<circle cx="756.5" cy="386.5" r="6.5" fill="#4E00FF"/>
<circle cx="806.5" cy="386.5" r="6.5" fill="#4E00FF"/>
<circle cx="856.5" cy="386.5" r="6.5" fill="#4E00FF"/>
<circle cx="906.5" cy="386.5" r="6.5" fill="#4E00FF"/>
<circle cx="956.5" cy="386.5" r="6.5" fill="#4E00FF"/>
<circle cx="1006.5" cy="386.5" r="6.5" fill="#4E00FF"/>
<circle cx="1056.5" cy="386.5" r="6.5" fill="#4E00FF"/>
<circle cx="1106.5" cy="386.5" r="6.5" fill="#4E00FF"/>
<circle cx="1156.5" cy="386.5" r="6.5" fill="#4E00FF"/>
<circle cx="1206.5" cy="386.5" r="6.5" fill="#4E00FF"/>
<circle cx="1256.5" cy="386.5" r="6.5" fill="#4E00FF"/>
<circle cx="1306.5" cy="386.5" r="6.5" fill="#4E00FF"/>
<circle cx="1356.5" cy="386.5" r="6.5" fill="#4E00FF"/>
<circle cx="1406.5" cy="386.5" r="6.5" fill="#4E00FF"/>
<circle cx="6.5" cy="424.5" r="6.5" fill="#4E00FF"/>
<circle cx="56.5" cy="424.5" r="6.5" fill="#4E00FF"/>
<circle cx="106.5" cy="424.5" r="6.5" fill="#4E00FF"/>
<circle cx="156.5" cy="424.5" r="6.5" fill="#4E00FF"/>
<circle cx="206.5" cy="424.5" r="6.5" fill="#4E00FF"/>
<circle cx="256.5" cy="424.5" r="6.5" fill="#4E00FF"/>
<circle cx="306.5" cy="424.5" r="6.5" fill="#4E00FF"/>
<circle cx="356.5" cy="424.5" r="6.5" fill="#4E00FF"/>
<circle cx="406.5" cy="424.5" r="6.5" fill="#4E00FF"/>
<circle cx="456.5" cy="424.5" r="6.5" fill="#4E00FF"/>
<circle cx="506.5" cy="424.5" r="6.5" fill="#4E00FF"/>
<circle cx="556.5" cy="424.5" r="6.5" fill="#4E00FF"/>
<circle cx="606.5" cy="424.5" r="6.5" fill="#4E00FF"/>
<circle cx="656.5" cy="424.5" r="6.5" fill="#4E00FF"/>
<circle cx="706.5" cy="424.5" r="6.5" fill="#4E00FF"/>
<circle cx="756.5" cy="424.5" r="6.5" fill="#4E00FF"/>
<circle cx="806.5" cy="424.5" r="6.5" fill="#4E00FF"/>
<circle cx="856.5" cy="424.5" r="6.5" fill="#4E00FF"/>
<circle cx="906.5" cy="424.5" r="6.5" fill="#4E00FF"/>
<circle cx="956.5" cy="424.5" r="6.5" fill="#4E00FF"/>
<circle cx="1006.5" cy="424.5" r="6.5" fill="#4E00FF"/>
<circle cx="1056.5" cy="424.5" r="6.5" fill="#4E00FF"/>
<circle cx="1106.5" cy="424.5" r="6.5" fill="#4E00FF"/>
<circle cx="1156.5" cy="424.5" r="6.5" fill="#4E00FF"/>
<circle cx="1206.5" cy="424.5" r="6.5" fill="#4E00FF"/>
<circle cx="1256.5" cy="424.5" r="6.5" fill="#4E00FF"/>
<circle cx="1306.5" cy="424.5" r="6.5" fill="#4E00FF"/>
<circle cx="1356.5" cy="424.5" r="6.5" fill="#4E00FF"/>
<circle cx="1406.5" cy="424.5" r="6.5" fill="#4E00FF"/>
<circle cx="6.5" cy="462.5" r="6.5" fill="#4E00FF"/>
<circle cx="56.5" cy="462.5" r="6.5" fill="#4E00FF"/>
<circle cx="106.5" cy="462.5" r="6.5" fill="#4E00FF"/>
<circle cx="156.5" cy="462.5" r="6.5" fill="#4E00FF"/>
<circle cx="206.5" cy="462.5" r="6.5" fill="#4E00FF"/>
<circle cx="256.5" cy="462.5" r="6.5" fill="#4E00FF"/>
<circle cx="306.5" cy="462.5" r="6.5" fill="#4E00FF"/>
<circle cx="356.5" cy="462.5" r="6.5" fill="#4E00FF"/>
<circle cx="406.5" cy="462.5" r="6.5" fill="#4E00FF"/>
<circle cx="456.5" cy="462.5" r="6.5" fill="#4E00FF"/>
<circle cx="506.5" cy="462.5" r="6.5" fill="#4E00FF"/>
<circle cx="556.5" cy="462.5" r="6.5" fill="#4E00FF"/>
<circle cx="606.5" cy="462.5" r="6.5" fill="#4E00FF"/>
<circle cx="656.5" cy="462.5" r="6.5" fill="#4E00FF"/>
<circle cx="706.5" cy="462.5" r="6.5" fill="#4E00FF"/>
<circle cx="756.5" cy="462.5" r="6.5" fill="#4E00FF"/>
<circle cx="806.5" cy="462.5" r="6.5" fill="#4E00FF"/>
<circle cx="856.5" cy="462.5" r="6.5" fill="#4E00FF"/>
<circle cx="906.5" cy="462.5" r="6.5" fill="#4E00FF"/>
<circle cx="956.5" cy="462.5" r="6.5" fill="#4E00FF"/>
<circle cx="1006.5" cy="462.5" r="6.5" fill="#4E00FF"/>
<circle cx="1056.5" cy="462.5" r="6.5" fill="#4E00FF"/>
<circle cx="1106.5" cy="462.5" r="6.5" fill="#4E00FF"/>
<circle cx="1156.5" cy="462.5" r="6.5" fill="#4E00FF"/>
<circle cx="1206.5" cy="462.5" r="6.5" fill="#4E00FF"/>
<circle cx="1256.5" cy="462.5" r="6.5" fill="#4E00FF"/>
<circle cx="1306.5" cy="462.5" r="6.5" fill="#4E00FF"/>
<circle cx="1356.5" cy="462.5" r="6.5" fill="#4E00FF"/>
<circle cx="1406.5" cy="462.5" r="6.5" fill="#4E00FF"/>
<circle cx="6.5" cy="500.5" r="6.5" fill="#4E00FF"/>
<circle cx="56.5" cy="500.5" r="6.5" fill="#4E00FF"/>
<circle cx="106.5" cy="500.5" r="6.5" fill="#4E00FF"/>
<circle cx="156.5" cy="500.5" r="6.5" fill="#4E00FF"/>
<circle cx="206.5" cy="500.5" r="6.5" fill="#4E00FF"/>
<circle cx="256.5" cy="500.5" r="6.5" fill="#4E00FF"/>
<circle cx="306.5" cy="500.5" r="6.5" fill="#4E00FF"/>
<circle cx="356.5" cy="500.5" r="6.5" fill="#4E00FF"/>
<circle cx="406.5" cy="500.5" r="6.5" fill="#4E00FF"/>
<circle cx="456.5" cy="500.5" r="6.5" fill="#4E00FF"/>
<circle cx="506.5" cy="500.5" r="6.5" fill="#4E00FF"/>
<circle cx="556.5" cy="500.5" r="6.5" fill="#4E00FF"/>
<circle cx="606.5" cy="500.5" r="6.5" fill="#4E00FF"/>
<circle cx="656.5" cy="500.5" r="6.5" fill="#4E00FF"/>
<circle cx="706.5" cy="500.5" r="6.5" fill="#4E00FF"/>
<circle cx="756.5" cy="500.5" r="6.5" fill="#4E00FF"/>
<circle cx="806.5" cy="500.5" r="6.5" fill="#4E00FF"/>
<circle cx="856.5" cy="500.5" r="6.5" fill="#4E00FF"/>
<circle cx="906.5" cy="500.5" r="6.5" fill="#4E00FF"/>
<circle cx="956.5" cy="500.5" r="6.5" fill="#4E00FF"/>
<circle cx="1006.5" cy="500.5" r="6.5" fill="#4E00FF"/>
<circle cx="1056.5" cy="500.5" r="6.5" fill="#4E00FF"/>
<circle cx="1106.5" cy="500.5" r="6.5" fill="#4E00FF"/>
<circle cx="1156.5" cy="500.5" r="6.5" fill="#4E00FF"/>
<circle cx="1206.5" cy="500.5" r="6.5" fill="#4E00FF"/>
<circle cx="1256.5" cy="500.5" r="6.5" fill="#4E00FF"/>
<circle cx="1306.5" cy="500.5" r="6.5" fill="#4E00FF"/>
<circle cx="1356.5" cy="500.5" r="6.5" fill="#4E00FF"/>
<circle cx="1406.5" cy="500.5" r="6.5" fill="#4E00FF"/>
<circle cx="6.5" cy="538.5" r="6.5" fill="#4E00FF"/>
<circle cx="56.5" cy="538.5" r="6.5" fill="#4E00FF"/>
<circle cx="106.5" cy="538.5" r="6.5" fill="#4E00FF"/>
<circle cx="156.5" cy="538.5" r="6.5" fill="#4E00FF"/>
<circle cx="206.5" cy="538.5" r="6.5" fill="#4E00FF"/>
<circle cx="256.5" cy="538.5" r="6.5" fill="#4E00FF"/>
<circle cx="306.5" cy="538.5" r="6.5" fill="#4E00FF"/>
<circle cx="356.5" cy="538.5" r="6.5" fill="#4E00FF"/>
<circle cx="406.5" cy="538.5" r="6.5" fill="#4E00FF"/>
<circle cx="456.5" cy="538.5" r="6.5" fill="#4E00FF"/>
<circle cx="506.5" cy="538.5" r="6.5" fill="#4E00FF"/>
<circle cx="556.5" cy="538.5" r="6.5" fill="#4E00FF"/>
<circle cx="606.5" cy="538.5" r="6.5" fill="#4E00FF"/>
<circle cx="656.5" cy="538.5" r="6.5" fill="#4E00FF"/>
<circle cx="706.5" cy="538.5" r="6.5" fill="#4E00FF"/>
<circle cx="756.5" cy="538.5" r="6.5" fill="#4E00FF"/>
<circle cx="806.5" cy="538.5" r="6.5" fill="#4E00FF"/>
<circle cx="856.5" cy="538.5" r="6.5" fill="#4E00FF"/>
<circle cx="906.5" cy="538.5" r="6.5" fill="#4E00FF"/>
<circle cx="956.5" cy="538.5" r="6.5" fill="#4E00FF"/>
<circle cx="1006.5" cy="538.5" r="6.5" fill="#4E00FF"/>
<circle cx="1056.5" cy="538.5" r="6.5" fill="#4E00FF"/>
<circle cx="1106.5" cy="538.5" r="6.5" fill="#4E00FF"/>
<circle cx="1156.5" cy="538.5" r="6.5" fill="#4E00FF"/>
<circle cx="1206.5" cy="538.5" r="6.5" fill="#4E00FF"/>
<circle cx="1256.5" cy="538.5" r="6.5" fill="#4E00FF"/>
<circle cx="1306.5" cy="538.5" r="6.5" fill="#4E00FF"/>
<circle cx="1356.5" cy="538.5" r="6.5" fill="#4E00FF"/>
<circle cx="1406.5" cy="538.5" r="6.5" fill="#4E00FF"/>
<circle cx="6.5" cy="576.5" r="6.5" fill="#4E00FF"/>
<circle cx="56.5" cy="576.5" r="6.5" fill="#4E00FF"/>
<circle cx="106.5" cy="576.5" r="6.5" fill="#4E00FF"/>
<circle cx="156.5" cy="576.5" r="6.5" fill="#4E00FF"/>
<circle cx="206.5" cy="576.5" r="6.5" fill="#4E00FF"/>
<circle cx="256.5" cy="576.5" r="6.5" fill="#4E00FF"/>
<circle cx="306.5" cy="576.5" r="6.5" fill="#4E00FF"/>
<circle cx="356.5" cy="576.5" r="6.5" fill="#4E00FF"/>
<circle cx="406.5" cy="576.5" r="6.5" fill="#4E00FF"/>
<circle cx="456.5" cy="576.5" r="6.5" fill="#4E00FF"/>
<circle cx="506.5" cy="576.5" r="6.5" fill="#4E00FF"/>
<circle cx="556.5" cy="576.5" r="6.5" fill="#4E00FF"/>
<circle cx="606.5" cy="576.5" r="6.5" fill="#4E00FF"/>
<circle cx="656.5" cy="576.5" r="6.5" fill="#4E00FF"/>
<circle cx="706.5" cy="576.5" r="6.5" fill="#4E00FF"/>
<circle cx="756.5" cy="576.5" r="6.5" fill="#4E00FF"/>
<circle cx="806.5" cy="576.5" r="6.5" fill="#4E00FF"/>
<circle cx="856.5" cy="576.5" r="6.5" fill="#4E00FF"/>
<circle cx="906.5" cy="576.5" r="6.5" fill="#4E00FF"/>
<circle cx="956.5" cy="576.5" r="6.5" fill="#4E00FF"/>
<circle cx="1006.5" cy="576.5" r="6.5" fill="#4E00FF"/>
<circle cx="1056.5" cy="576.5" r="6.5" fill="#4E00FF"/>
<circle cx="1106.5" cy="576.5" r="6.5" fill="#4E00FF"/>
<circle cx="1156.5" cy="576.5" r="6.5" fill="#4E00FF"/>
<circle cx="1206.5" cy="576.5" r="6.5" fill="#4E00FF"/>
<circle cx="1256.5" cy="576.5" r="6.5" fill="#4E00FF"/>
<circle cx="1306.5" cy="576.5" r="6.5" fill="#4E00FF"/>
<circle cx="1356.5" cy="576.5" r="6.5" fill="#4E00FF"/>
<circle cx="1406.5" cy="576.5" r="6.5" fill="#4E00FF"/>
<circle cx="6.5" cy="614.5" r="6.5" fill="#4E00FF"/>
<circle cx="56.5" cy="614.5" r="6.5" fill="#4E00FF"/>
<circle cx="106.5" cy="614.5" r="6.5" fill="#4E00FF"/>
<circle cx="156.5" cy="614.5" r="6.5" fill="#4E00FF"/>
<circle cx="206.5" cy="614.5" r="6.5" fill="#4E00FF"/>
<circle cx="256.5" cy="614.5" r="6.5" fill="#4E00FF"/>
<circle cx="306.5" cy="614.5" r="6.5" fill="#4E00FF"/>
<circle cx="356.5" cy="614.5" r="6.5" fill="#4E00FF"/>
<circle cx="406.5" cy="614.5" r="6.5" fill="#4E00FF"/>
<circle cx="456.5" cy="614.5" r="6.5" fill="#4E00FF"/>
<circle cx="506.5" cy="614.5" r="6.5" fill="#4E00FF"/>
<circle cx="556.5" cy="614.5" r="6.5" fill="#4E00FF"/>
<circle cx="606.5" cy="614.5" r="6.5" fill="#4E00FF"/>
<circle cx="656.5" cy="614.5" r="6.5" fill="#4E00FF"/>
<circle cx="706.5" cy="614.5" r="6.5" fill="#4E00FF"/>
<circle cx="756.5" cy="614.5" r="6.5" fill="#4E00FF"/>
<circle cx="806.5" cy="614.5" r="6.5" fill="#4E00FF"/>
<circle cx="856.5" cy="614.5" r="6.5" fill="#4E00FF"/>
<circle cx="906.5" cy="614.5" r="6.5" fill="#4E00FF"/>
<circle cx="956.5" cy="614.5" r="6.5" fill="#4E00FF"/>
<circle cx="1006.5" cy="614.5" r="6.5" fill="#4E00FF"/>
<circle cx="1056.5" cy="614.5" r="6.5" fill="#4E00FF"/>
<circle cx="1106.5" cy="614.5" r="6.5" fill="#4E00FF"/>
<circle cx="1156.5" cy="614.5" r="6.5" fill="#4E00FF"/>
<circle cx="1206.5" cy="614.5" r="6.5" fill="#4E00FF"/>
<circle cx="1256.5" cy="614.5" r="6.5" fill="#4E00FF"/>
<circle cx="1306.5" cy="614.5" r="6.5" fill="#4E00FF"/>
<circle cx="1356.5" cy="614.5" r="6.5" fill="#4E00FF"/>
<circle cx="1406.5" cy="614.5" r="6.5" fill="#4E00FF"/>
<circle cx="6.5" cy="652.5" r="6.5" fill="#4E00FF"/>
<circle cx="56.5" cy="652.5" r="6.5" fill="#4E00FF"/>
<circle cx="106.5" cy="652.5" r="6.5" fill="#4E00FF"/>
<circle cx="156.5" cy="652.5" r="6.5" fill="#4E00FF"/>
<circle cx="206.5" cy="652.5" r="6.5" fill="#4E00FF"/>
<circle cx="256.5" cy="652.5" r="6.5" fill="#4E00FF"/>
<circle cx="306.5" cy="652.5" r="6.5" fill="#4E00FF"/>
<circle cx="356.5" cy="652.5" r="6.5" fill="#4E00FF"/>
<circle cx="406.5" cy="652.5" r="6.5" fill="#4E00FF"/>
<circle cx="456.5" cy="652.5" r="6.5" fill="#4E00FF"/>
<circle cx="506.5" cy="652.5" r="6.5" fill="#4E00FF"/>
<circle cx="556.5" cy="652.5" r="6.5" fill="#4E00FF"/>
<circle cx="606.5" cy="652.5" r="6.5" fill="#4E00FF"/>
<circle cx="656.5" cy="652.5" r="6.5" fill="#4E00FF"/>
<circle cx="706.5" cy="652.5" r="6.5" fill="#4E00FF"/>
<circle cx="756.5" cy="652.5" r="6.5" fill="#4E00FF"/>
<circle cx="806.5" cy="652.5" r="6.5" fill="#4E00FF"/>
<circle cx="856.5" cy="652.5" r="6.5" fill="#4E00FF"/>
<circle cx="906.5" cy="652.5" r="6.5" fill="#4E00FF"/>
<circle cx="956.5" cy="652.5" r="6.5" fill="#4E00FF"/>
<circle cx="1006.5" cy="652.5" r="6.5" fill="#4E00FF"/>
<circle cx="1056.5" cy="652.5" r="6.5" fill="#4E00FF"/>
<circle cx="1106.5" cy="652.5" r="6.5" fill="#4E00FF"/>
<circle cx="1156.5" cy="652.5" r="6.5" fill="#4E00FF"/>
<circle cx="1206.5" cy="652.5" r="6.5" fill="#4E00FF"/>
<circle cx="1256.5" cy="652.5" r="6.5" fill="#4E00FF"/>
<circle cx="1306.5" cy="652.5" r="6.5" fill="#4E00FF"/>
<circle cx="1356.5" cy="652.5" r="6.5" fill="#4E00FF"/>
<circle cx="1406.5" cy="652.5" r="6.5" fill="#4E00FF"/>
<circle cx="6.5" cy="690.5" r="6.5" fill="#4E00FF"/>
<circle cx="56.5" cy="690.5" r="6.5" fill="#4E00FF"/>
<circle cx="106.5" cy="690.5" r="6.5" fill="#4E00FF"/>
<circle cx="156.5" cy="690.5" r="6.5" fill="#4E00FF"/>
<circle cx="206.5" cy="690.5" r="6.5" fill="#4E00FF"/>
<circle cx="256.5" cy="690.5" r="6.5" fill="#4E00FF"/>
<circle cx="306.5" cy="690.5" r="6.5" fill="#4E00FF"/>
<circle cx="356.5" cy="690.5" r="6.5" fill="#4E00FF"/>
<circle cx="406.5" cy="690.5" r="6.5" fill="#4E00FF"/>
<circle cx="456.5" cy="690.5" r="6.5" fill="#4E00FF"/>
<circle cx="506.5" cy="690.5" r="6.5" fill="#4E00FF"/>
<circle cx="556.5" cy="690.5" r="6.5" fill="#4E00FF"/>
<circle cx="606.5" cy="690.5" r="6.5" fill="#4E00FF"/>
<circle cx="656.5" cy="690.5" r="6.5" fill="#4E00FF"/>
<circle cx="706.5" cy="690.5" r="6.5" fill="#4E00FF"/>
<circle cx="756.5" cy="690.5" r="6.5" fill="#4E00FF"/>
<circle cx="806.5" cy="690.5" r="6.5" fill="#4E00FF"/>
<circle cx="856.5" cy="690.5" r="6.5" fill="#4E00FF"/>
<circle cx="906.5" cy="690.5" r="6.5" fill="#4E00FF"/>
<circle cx="956.5" cy="690.5" r="6.5" fill="#4E00FF"/>
<circle cx="1006.5" cy="690.5" r="6.5" fill="#4E00FF"/>
<circle cx="1056.5" cy="690.5" r="6.5" fill="#4E00FF"/>
<circle cx="1106.5" cy="690.5" r="6.5" fill="#4E00FF"/>
<circle cx="1156.5" cy="690.5" r="6.5" fill="#4E00FF"/>
<circle cx="1206.5" cy="690.5" r="6.5" fill="#4E00FF"/>
<circle cx="1256.5" cy="690.5" r="6.5" fill="#4E00FF"/>
<circle cx="1306.5" cy="690.5" r="6.5" fill="#4E00FF"/>
<circle cx="1356.5" cy="690.5" r="6.5" fill="#4E00FF"/>
<circle cx="1406.5" cy="690.5" r="6.5" fill="#4E00FF"/>
<circle cx="6.5" cy="728.5" r="6.5" fill="#4E00FF"/>
<circle cx="56.5" cy="728.5" r="6.5" fill="#4E00FF"/>
<circle cx="106.5" cy="728.5" r="6.5" fill="#4E00FF"/>
<circle cx="156.5" cy="728.5" r="6.5" fill="#4E00FF"/>
<circle cx="206.5" cy="728.5" r="6.5" fill="#4E00FF"/>
<circle cx="256.5" cy="728.5" r="6.5" fill="#4E00FF"/>
<circle cx="306.5" cy="728.5" r="6.5" fill="#4E00FF"/>
<circle cx="356.5" cy="728.5" r="6.5" fill="#4E00FF"/>
<circle cx="406.5" cy="728.5" r="6.5" fill="#4E00FF"/>
<circle cx="456.5" cy="728.5" r="6.5" fill="#4E00FF"/>
<circle cx="506.5" cy="728.5" r="6.5" fill="#4E00FF"/>
<circle cx="556.5" cy="728.5" r="6.5" fill="#4E00FF"/>
<circle cx="606.5" cy="728.5" r="6.5" fill="#4E00FF"/>
<circle cx="656.5" cy="728.5" r="6.5" fill="#4E00FF"/>
<circle cx="706.5" cy="728.5" r="6.5" fill="#4E00FF"/>
<circle cx="756.5" cy="728.5" r="6.5" fill="#4E00FF"/>
<circle cx="806.5" cy="728.5" r="6.5" fill="#4E00FF"/>
<circle cx="856.5" cy="728.5" r="6.5" fill="#4E00FF"/>
<circle cx="906.5" cy="728.5" r="6.5" fill="#4E00FF"/>
<circle cx="956.5" cy="728.5" r="6.5" fill="#4E00FF"/>
<circle cx="1006.5" cy="728.5" r="6.5" fill="#4E00FF"/>
<circle cx="1056.5" cy="728.5" r="6.5" fill="#4E00FF"/>
<circle cx="1106.5" cy="728.5" r="6.5" fill="#4E00FF"/>
<circle cx="1156.5" cy="728.5" r="6.5" fill="#4E00FF"/>
<circle cx="1206.5" cy="728.5" r="6.5" fill="#4E00FF"/>
<circle cx="1256.5" cy="728.5" r="6.5" fill="#4E00FF"/>
<circle cx="1306.5" cy="728.5" r="6.5" fill="#4E00FF"/>
<circle cx="1356.5" cy="728.5" r="6.5" fill="#4E00FF"/>
<circle cx="1406.5" cy="728.5" r="6.5" fill="#4E00FF"/>
<circle cx="6.5" cy="766.5" r="6.5" fill="#4E00FF"/>
<circle cx="56.5" cy="766.5" r="6.5" fill="#4E00FF"/>
<circle cx="106.5" cy="766.5" r="6.5" fill="#4E00FF"/>
<circle cx="156.5" cy="766.5" r="6.5" fill="#4E00FF"/>
<circle cx="206.5" cy="766.5" r="6.5" fill="#4E00FF"/>
<circle cx="256.5" cy="766.5" r="6.5" fill="#4E00FF"/>
<circle cx="306.5" cy="766.5" r="6.5" fill="#4E00FF"/>
<circle cx="356.5" cy="766.5" r="6.5" fill="#4E00FF"/>
<circle cx="406.5" cy="766.5" r="6.5" fill="#4E00FF"/>
<circle cx="456.5" cy="766.5" r="6.5" fill="#4E00FF"/>
<circle cx="506.5" cy="766.5" r="6.5" fill="#4E00FF"/>
<circle cx="556.5" cy="766.5" r="6.5" fill="#4E00FF"/>
<circle cx="606.5" cy="766.5" r="6.5" fill="#4E00FF"/>
<circle cx="656.5" cy="766.5" r="6.5" fill="#4E00FF"/>
<circle cx="706.5" cy="766.5" r="6.5" fill="#4E00FF"/>
<circle cx="756.5" cy="766.5" r="6.5" fill="#4E00FF"/>
<circle cx="806.5" cy="766.5" r="6.5" fill="#4E00FF"/>
<circle cx="856.5" cy="766.5" r="6.5" fill="#4E00FF"/>
<circle cx="906.5" cy="766.5" r="6.5" fill="#4E00FF"/>
<circle cx="956.5" cy="766.5" r="6.5" fill="#4E00FF"/>
<circle cx="1006.5" cy="766.5" r="6.5" fill="#4E00FF"/>
<circle cx="1056.5" cy="766.5" r="6.5" fill="#4E00FF"/>
<circle cx="1106.5" cy="766.5" r="6.5" fill="#4E00FF"/>
<circle cx="1156.5" cy="766.5" r="6.5" fill="#4E00FF"/>
<circle cx="1206.5" cy="766.5" r="6.5" fill="#4E00FF"/>
<circle cx="1256.5" cy="766.5" r="6.5" fill="#4E00FF"/>
<circle cx="1306.5" cy="766.5" r="6.5" fill="#4E00FF"/>
<circle cx="1356.5" cy="766.5" r="6.5" fill="#4E00FF"/>
<circle cx="1406.5" cy="766.5" r="6.5" fill="#4E00FF"/>
</g>
</svg>
