<svg width="47" height="23" viewBox="0 0 47 23" fill="none" xmlns="http://www.w3.org/2000/svg">
<rect width="46.78" height="23" rx="4" fill="#032DBC" fill-opacity="0.1"/>
<path d="M10.1021 15L8.26414 8H9.70929L10.9262 13.4724L12.3607 8H13.8576L15.2521 13.4749L16.4831 8H17.9341L16.0503 15H14.4397L13.0921 9.90169L11.7045 15H10.1021ZM18.8714 15V8H21.4855C22.0545 8 22.5261 8.09655 22.9003 8.28965C23.2746 8.48276 23.5526 8.74241 23.7343 9.06862C23.916 9.39482 24.0069 9.76827 24.0069 10.189C24.0069 10.5729 23.918 10.9296 23.7402 11.2591C23.5623 11.5887 23.288 11.8556 22.9171 12.0598C22.5461 12.2641 22.069 12.3662 21.4855 12.3662H20.2214V15H18.8714ZM20.2214 11.2752H21.411C21.8421 11.2752 22.1532 11.1753 22.3443 10.9755C22.5355 10.7757 22.631 10.5136 22.631 10.189C22.631 9.84551 22.5355 9.57792 22.3443 9.38619C22.1532 9.19447 21.8421 9.0986 21.411 9.0986H20.2214V11.2752ZM25.0114 15V8H26.6245L28.7603 12.3624L30.8828 8H32.4941V15H31.1441V10.2913L29.2855 14.02H28.2159L26.3614 10.2996V15H25.0114ZM33.8714 15V8H35.2214V13.949H38.2938V15H33.8714Z" fill="#032DBC"/>
</svg>
