<svg width="69" height="23" viewBox="0 0 69 23" fill="none" xmlns="http://www.w3.org/2000/svg">
<rect width="68.67" height="23" rx="4" fill="#712AE2" fill-opacity="0.1"/>
<path d="M8.69138 15V8H11.3055C11.8745 8 12.3461 8.09655 12.7203 8.28965C13.0946 8.48276 13.3726 8.74241 13.5543 9.06862C13.736 9.39482 13.8269 9.76827 13.8269 10.189C13.8269 10.5729 13.738 10.9296 13.5602 11.2591C13.3823 11.5887 13.108 11.8556 12.7371 12.0598C12.3661 12.2641 11.889 12.3662 11.3055 12.3662H10.0414V15H8.69138ZM10.0414 11.2752H11.231C11.6621 11.2752 11.9732 11.1753 12.1643 10.9755C12.3555 10.7757 12.451 10.5136 12.451 10.189C12.451 9.84551 12.3555 9.57792 12.1643 9.38619C11.9732 9.19447 11.6621 9.0986 11.231 9.0986H10.0414V11.2752ZM18.0569 15.12C17.3718 15.12 16.7704 14.9674 16.2526 14.6621C15.7348 14.3568 15.3303 13.9325 15.0391 13.3891C14.748 12.8458 14.6024 12.2161 14.6024 11.5C14.6024 10.7867 14.748 10.1583 15.0391 9.615C15.3303 9.07167 15.7348 8.64667 16.2526 8.34C16.7704 8.03333 17.3718 7.88 18.0569 7.88C18.7475 7.88 19.352 8.03333 19.8703 8.34C20.3887 8.64667 20.7935 9.07167 21.0847 9.615C21.3758 10.1583 21.5214 10.7867 21.5214 11.5C21.5214 12.2161 21.3758 12.8458 21.0847 13.3891C20.7935 13.9325 20.3887 14.3568 19.8703 14.6621C19.352 14.9674 18.7475 15.12 18.0569 15.12ZM18.0569 13.9052C18.4854 13.9052 18.8562 13.8078 19.1691 13.6129C19.4821 13.4181 19.7231 13.1409 19.8921 12.7812C20.0611 12.4216 20.1455 11.9945 20.1455 11.5C20.1455 11.0016 20.0611 10.5736 19.8921 10.2159C19.7231 9.85815 19.4821 9.58257 19.1691 9.38912C18.8562 9.19567 18.4854 9.09895 18.0569 9.09895C17.639 9.09895 17.2725 9.19567 16.9576 9.38912C16.6426 9.58257 16.4007 9.85815 16.2317 10.2159C16.0627 10.5736 15.9783 11.0016 15.9783 11.5C15.9783 11.9945 16.0627 12.4216 16.2317 12.7812C16.4007 13.1409 16.6426 13.4181 16.9576 13.6129C17.2725 13.8078 17.639 13.9052 18.0569 13.9052ZM22.6614 15V8H24.0114V13.949H27.0838V15H22.6614ZM29.0576 15V12.5393L26.6955 8H28.2258L29.8831 11.4617H29.6096L31.251 8H32.7655L30.4076 12.5393V15H29.0576ZM33.6014 15V8H34.9514V13.949H38.0238V15H33.6014ZM38.7238 15L41.2803 8H42.8093L45.3617 15H43.9324L42.0369 9.54239L40.1372 15H38.7238ZM39.851 13.411L40.2083 12.3559H43.771L44.1224 13.411H39.851ZM46.2814 15V8H47.6314L50.8514 12.8245V8H52.2014V15H50.8514L47.6314 10.1872V15H46.2814ZM56.65 15.12C55.9889 15.12 55.4106 14.9713 54.9153 14.6738C54.4201 14.3763 54.0357 13.9595 53.7624 13.4234C53.4891 12.8874 53.3524 12.2613 53.3524 11.5452C53.3524 10.8279 53.4937 10.194 53.7762 9.64345C54.0587 9.09287 54.4628 8.66132 54.9884 8.34879C55.5141 8.03626 56.1411 7.88 56.8697 7.88C57.6954 7.88 58.3804 8.07713 58.9246 8.47138C59.4689 8.86563 59.8202 9.4131 59.9786 10.1138H58.4693C58.3682 9.80321 58.1824 9.56073 57.9119 9.38636C57.6414 9.21199 57.2921 9.12481 56.8638 9.12481C56.4091 9.12481 56.0213 9.2232 55.7005 9.41998C55.3797 9.61676 55.1375 9.89625 54.9738 10.2584C54.8101 10.6206 54.7283 11.0515 54.7283 11.551C54.7283 12.0545 54.8111 12.4841 54.9767 12.8398C55.1423 13.1956 55.3799 13.4653 55.6893 13.649C55.9987 13.8327 56.3641 13.9245 56.7855 13.9245C57.3993 13.9245 57.864 13.7582 58.1795 13.4257C58.495 13.0932 58.6833 12.6655 58.7445 12.1427H57.0234V11.131H60.1027V15H58.8579L58.7528 14.1138C58.6056 14.3285 58.4345 14.5113 58.2393 14.6622C58.0441 14.8132 57.8165 14.9272 57.5564 15.0043C57.2963 15.0814 56.9941 15.12 56.65 15.12Z" fill="#712AE2"/>
</svg>
