<svg width="334" height="23" viewBox="0 0 334 23" fill="none" xmlns="http://www.w3.org/2000/svg">
<rect width="46.78" height="23" rx="4" fill="#032DBC" fill-opacity="0.1"/>
<path d="M10.1021 15L8.26414 8H9.70929L10.9262 13.4724L12.3607 8H13.8576L15.2521 13.4749L16.4831 8H17.9341L16.0503 15H14.4397L13.0921 9.90169L11.7045 15H10.1021ZM18.8714 15V8H21.4855C22.0545 8 22.5261 8.09655 22.9003 8.28965C23.2746 8.48276 23.5526 8.74241 23.7343 9.06862C23.916 9.39482 24.0069 9.76827 24.0069 10.189C24.0069 10.5729 23.918 10.9296 23.7402 11.2591C23.5623 11.5887 23.288 11.8556 22.9171 12.0598C22.5461 12.2641 22.069 12.3662 21.4855 12.3662H20.2214V15H18.8714ZM20.2214 11.2752H21.411C21.8421 11.2752 22.1532 11.1753 22.3443 10.9755C22.5355 10.7757 22.631 10.5136 22.631 10.189C22.631 9.84551 22.5355 9.57792 22.3443 9.38619C22.1532 9.19447 21.8421 9.0986 21.411 9.0986H20.2214V11.2752ZM25.0114 15V8H26.6245L28.7603 12.3624L30.8828 8H32.4941V15H31.1441V10.2913L29.2855 14.02H28.2159L26.3614 10.2996V15H25.0114ZM33.8714 15V8H35.2214V13.949H38.2938V15H33.8714Z" fill="#032DBC"/>
<rect x="54.78" width="68.67" height="23" rx="4" fill="#712AE2" fill-opacity="0.1"/>
<path d="M63.4714 15V8H66.0855C66.6545 8 67.1261 8.09655 67.5003 8.28965C67.8746 8.48276 68.1526 8.74241 68.3343 9.06862C68.516 9.39482 68.6069 9.76827 68.6069 10.189C68.6069 10.5729 68.518 10.9296 68.3402 11.2591C68.1623 11.5887 67.888 11.8556 67.5171 12.0598C67.1461 12.2641 66.669 12.3662 66.0855 12.3662H64.8214V15H63.4714ZM64.8214 11.2752H66.011C66.4421 11.2752 66.7532 11.1753 66.9443 10.9755C67.1355 10.7757 67.231 10.5136 67.231 10.189C67.231 9.84551 67.1355 9.57792 66.9443 9.38619C66.7532 9.19447 66.4421 9.0986 66.011 9.0986H64.8214V11.2752ZM72.8369 15.12C72.1518 15.12 71.5504 14.9674 71.0326 14.6621C70.5148 14.3568 70.1103 13.9325 69.8191 13.3891C69.528 12.8458 69.3824 12.2161 69.3824 11.5C69.3824 10.7867 69.528 10.1583 69.8191 9.615C70.1103 9.07167 70.5148 8.64667 71.0326 8.34C71.5504 8.03333 72.1518 7.88 72.8369 7.88C73.5275 7.88 74.132 8.03333 74.6503 8.34C75.1687 8.64667 75.5735 9.07167 75.8646 9.615C76.1558 10.1583 76.3014 10.7867 76.3014 11.5C76.3014 12.2161 76.1558 12.8458 75.8646 13.3891C75.5735 13.9325 75.1687 14.3568 74.6503 14.6621C74.132 14.9674 73.5275 15.12 72.8369 15.12ZM72.8369 13.9052C73.2654 13.9052 73.6362 13.8078 73.9491 13.6129C74.2621 13.4181 74.5031 13.1409 74.6721 12.7812C74.841 12.4216 74.9255 11.9945 74.9255 11.5C74.9255 11.0016 74.841 10.5736 74.6721 10.2159C74.5031 9.85815 74.2621 9.58257 73.9491 9.38912C73.6362 9.19567 73.2654 9.09895 72.8369 9.09895C72.419 9.09895 72.0525 9.19567 71.7376 9.38912C71.4226 9.58257 71.1807 9.85815 71.0117 10.2159C70.8427 10.5736 70.7583 11.0016 70.7583 11.5C70.7583 11.9945 70.8427 12.4216 71.0117 12.7812C71.1807 13.1409 71.4226 13.4181 71.7376 13.6129C72.0525 13.8078 72.419 13.9052 72.8369 13.9052ZM77.4414 15V8H78.7914V13.949H81.8638V15H77.4414ZM83.8376 15V12.5393L81.4755 8H83.0058L84.6631 11.4617H84.3896L86.031 8H87.5455L85.1876 12.5393V15H83.8376ZM88.3814 15V8H89.7314V13.949H92.8038V15H88.3814ZM93.5038 15L96.0603 8H97.5893L100.142 15H98.7124L96.8169 9.54239L94.9172 15H93.5038ZM94.631 13.411L94.9883 12.3559H98.551L98.9024 13.411H94.631ZM101.061 15V8H102.411L105.631 12.8245V8H106.981V15H105.631L102.411 10.1872V15H101.061ZM111.43 15.12C110.769 15.12 110.191 14.9713 109.695 14.6738C109.2 14.3763 108.816 13.9595 108.542 13.4234C108.269 12.8874 108.132 12.2613 108.132 11.5452C108.132 10.8279 108.274 10.194 108.556 9.64345C108.839 9.09287 109.243 8.66132 109.768 8.34879C110.294 8.03626 110.921 7.88 111.65 7.88C112.475 7.88 113.16 8.07713 113.705 8.47138C114.249 8.86563 114.6 9.4131 114.759 10.1138H113.249C113.148 9.80321 112.962 9.56073 112.692 9.38636C112.421 9.21199 112.072 9.12481 111.644 9.12481C111.189 9.12481 110.801 9.2232 110.481 9.41998C110.16 9.61676 109.917 9.89625 109.754 10.2584C109.59 10.6206 109.508 11.0515 109.508 11.551C109.508 12.0545 109.591 12.4841 109.757 12.8398C109.922 13.1956 110.16 13.4653 110.469 13.649C110.779 13.8327 111.144 13.9245 111.566 13.9245C112.179 13.9245 112.644 13.7582 112.959 13.4257C113.275 13.0932 113.463 12.6655 113.524 12.1427H111.803V11.131H114.883V15H113.638L113.533 14.1138C113.386 14.3285 113.214 14.5113 113.019 14.6622C112.824 14.8132 112.596 14.9272 112.336 15.0043C112.076 15.0814 111.774 15.12 111.43 15.12Z" fill="#712AE2"/>
</svg>
